<?xml version="1.0" encoding="utf-8"?>
<!-- Generator: Adobe Illustrator 24.1.0, SVG Export Plug-In . SVG Version: 6.00 Build 0)  -->
<svg version="1.1" id="Layer_1" xmlns="http://www.w3.org/2000/svg" xmlns:xlink="http://www.w3.org/1999/xlink" x="0px" y="0px"
	 viewBox="0 0 400 400" style="enable-background:new 0 0 400 400;" xml:space="preserve">
<style type="text/css">
	.st0{fill:#4DABF7;}
	.st1{fill:#38D9A9;}
</style>
<g>
	<g id="XMLID_1_">
		<g>
			<path class="st0" d="M384,88v224c0,13.2-10.8,24-24,24h-88V64h88C373.2,64,384,74.8,384,88z"/>
			<path class="st1" d="M256,64v272H40c-13.2,0-24-10.8-24-24V88c0-13.2,10.8-24,24-24H256z"/>
			<path d="M400,88v224c0,22-18,40-40,40H40c-22,0-40-18-40-40V88c0-22,18-40,40-40h320C382,48,400,66,400,88z M384,312V88
				c0-13.2-10.8-24-24-24h-88v272h88C373.2,336,384,325.2,384,312z M256,336V64H40c-13.2,0-24,10.8-24,24v224c0,13.2,10.8,24,24,24
				H256z"/>
		</g>
		<g>
		</g>
	</g>
	<path d="M48,108h8c4.4,0,8-3.6,8-8s-3.6-8-8-8h-8c-4.4,0-8,3.6-8,8S43.6,108,48,108z"/>
	<path d="M84,108h8c4.4,0,8-3.6,8-8s-3.6-8-8-8h-8c-4.4,0-8,3.6-8,8S79.6,108,84,108z"/>
	<path d="M120,108h8c4.4,0,8-3.6,8-8s-3.6-8-8-8h-8c-4.4,0-8,3.6-8,8S115.6,108,120,108z"/>
	<path d="M340,116h-28c-4.4,0-8,3.6-8,8c0,4.4,3.6,8,8,8h28c4.4,0,8-3.6,8-8C348,119.6,344.4,116,340,116z"/>
	<path d="M340,156h-28c-4.4,0-8,3.6-8,8s3.6,8,8,8h28c4.4,0,8-3.6,8-8S344.4,156,340,156z"/>
	<path d="M340,196h-28c-4.4,0-8,3.6-8,8s3.6,8,8,8h28c4.4,0,8-3.6,8-8S344.4,196,340,196z"/>
</g>
</svg>
